<?xml version="1.0" encoding="UTF-8"?>
<svg xmlns="http://www.w3.org/2000/svg" id="icons" viewBox="0 0 60 60">
    <path
        d="M21.807,49.786a.5.5,0,0,1-.3-.9l.143-.107-.662.382a.5.5,0,0,1-.578-.809l2.807-2.441L19.2,48.227a.5.5,0,0,1-.547-.835l.376-.278-.929.536a.5.5,0,0,1-.581-.806l3.345-2.962-4.738,2.735a.5.5,0,0,1-.543-.838l.241-.175-.776.449a.5.5,0,0,1-.542-.839l.177-.128-.7.407a.5.5,0,0,1-.55-.832l1.7-1.275-2.461,1.42a.5.5,0,0,1-.569-.818l3.483-2.9-4.762,2.749a.5.5,0,0,1-.552-.831l.994-.754-1.651.952a.5.5,0,0,1-.618-.771l2.031-2.206L7.649,42.178a.494.494,0,0,1-.4.044.5.5,0,0,1-.3-.267l-.382-.827-.437.252a.5.5,0,1,1-.5-.865l.911-.527a.5.5,0,0,1,.7.223l.382.827,5.738-3.311a.5.5,0,0,1,.618.771L11.948,40.7l5.7-3.289a.5.5,0,0,1,.552.831L17.206,39l2.948-1.7a.5.5,0,0,1,.57.817l-3.485,2.9,4.554-2.628a.5.5,0,0,1,.551.832l-1.7,1.274,2.237-1.29a.5.5,0,0,1,.542.839l-.185.132.53-.3a.5.5,0,0,1,.542.838l-.234.169.585-.337a.5.5,0,0,1,.581.807L21.9,44.306l4.4-2.541a.5.5,0,0,1,.547.835l-.377.277.742-.428a.5.5,0,0,1,.578.81L24.983,45.7l3.565-2.057a.5.5,0,0,1,.549.834l-.92.685a.5.5,0,0,1,.309.18.5.5,0,0,1-.02.651L27.42,47.135a.488.488,0,0,1,.192.188.5.5,0,0,1-.182.683l-1.782,1.028a.5.5,0,0,1-.619-.77l.507-.554-3.479,2.009A.491.491,0,0,1,21.807,49.786Z"
        fill="#c84e3c" />
    <path
        d="M6.652,41.064a.5.5,0,0,1-.258-.927l6.933-4.194L5.486,40.47a.5.5,0,0,1-.511-.859l17.892-11L4.853,39.015a.5.5,0,0,1-.513-.859L22.406,27.028,4.207,37.535a.5.5,0,0,1-.513-.858L21.77,25.521,3.554,36.037a.5.5,0,0,1-.512-.858l16.117-9.925L2.937,34.62a.5.5,0,0,1-.509-.86l3.3-2L2.5,33.626a.5.5,0,0,1-.516-.856L23.355,19.357,1.727,31.845a.5.5,0,0,1-.511-.86l8.847-5.4L1.292,30.649a.5.5,0,0,1-.516-.856l37.6-23.549a.5.5,0,0,1,.144-.306l.788-.787-.649.374a.5.5,0,0,1-.614-.774l.482-.515-.3.173a.5.5,0,0,1-.717-.611l.621-1.621-.229.132a.5.5,0,0,1-.5-.866L38.854.605a.5.5,0,0,1,.717.612L38.95,2.838l2-1.156a.5.5,0,0,1,.614.774l-.482.515L42.1,2.383a.5.5,0,0,1,.6.786l-.787.787,1.419-.819a.5.5,0,0,1,.515.856L24.881,15.877,45.1,4.207a.5.5,0,0,1,.51.859L36.78,10.452l9.532-5.5a.5.5,0,0,1,.516.857L25.457,19.219,48.19,6.1a.5.5,0,0,1,.509.86L45.4,8.947l3.836-2.214a.5.5,0,0,1,.512.859L33.636,17.515l17.1-9.87a.5.5,0,0,1,.513.858L33.18,19.653,52.312,8.607a.5.5,0,0,1,.512.859L34.758,20.594,53.872,9.559a.5.5,0,0,1,.512.858L36.47,21.428,55.406,10.5a.5.5,0,0,1,.509.86l-6.921,4.186,7.545-4.355a.5.5,0,0,1,.516.856L36.427,24.957l21.9-12.642a.5.5,0,0,1,.509.861l-2.478,1.5,2.36-1.362a.5.5,0,0,1,.517.855L42.024,25.088l16.006-9.24a.5.5,0,0,1,.519.854L46.336,24.479,57.387,18.1a.5.5,0,0,1,.527.848l-12.123,8.09,10.826-6.25a.5.5,0,0,1,.531.847l-7.653,5.2L55.956,23.1a.5.5,0,0,1,.531.845l-3.118,2.121,2.082-1.2A.5.5,0,0,1,56,25.7l-2.692,2.012,1.592-.919a.5.5,0,0,1,.567.82l-1.358,1.107.287-.165a.5.5,0,0,1,.6.786l-2.3,2.3.976-.563a.5.5,0,0,1,.633.754l-1.639,1.954.277-.16a.5.5,0,1,1,.5.865l-2.732,1.577a.5.5,0,0,1-.633-.754l1.639-1.953-1.8,1.041a.5.5,0,0,1-.6-.786l2.3-2.305-2.383,1.375a.5.5,0,0,1-.566-.82l1.356-1.106L46.479,32.81a.5.5,0,0,1-.548-.833l2.692-2.012-6.484,3.743a.5.5,0,0,1-.532-.846l3.12-2.122-6.568,3.791a.5.5,0,0,1-.531-.846l7.648-5.2L32.942,35.61a.5.5,0,0,1-.527-.848l12.13-8.095-17.662,10.2a.5.5,0,0,1-.519-.854l12.205-7.771L21.811,37.913a.5.5,0,0,1-.518-.854L38.511,26.134,16.039,39.106a.5.5,0,0,1-.509-.86l2.426-1.47-5.223,3.015a.5.5,0,0,1-.515-.856L32.852,26.016,6.9,41A.494.494,0,0,1,6.652,41.064Z"
        fill="#df5f44" />
    <path
        d="M16.126,59.449a.5.5,0,0,1-.276-.916l1.683-1.12-2.2,1.271a.5.5,0,0,1-.545-.837l7.587-5.534L17.1,55.359a.5.5,0,0,1-.55-.833l7.007-5.247a.5.5,0,0,1-.185-.865l4.079-3.4a.5.5,0,0,1,.249-.465l1.05-.607a.5.5,0,0,1,.57.817l-.82.683.79-.456a.5.5,0,0,1,.55.833l-5.985,4.483,6.14-3.545a.5.5,0,0,1,.545.837l-7.589,5.535,7.791-4.5a.5.5,0,0,1,.527.848L29.58,50.6l1.582-.913a.5.5,0,0,1,.57.817l-3.706,3.1,3.682-2.125a.5.5,0,0,1,.59.8l-.7.646a.479.479,0,0,1,.473.248.5.5,0,0,1-.182.682l-3.5,2.018a.5.5,0,0,1-.59-.8l.536-.5-4.824,2.785a.5.5,0,0,1-.571-.816l3.707-3.1L16.376,59.382A.494.494,0,0,1,16.126,59.449Z"
        fill="#df5f44" />
    <path
        d="M59.531,13.987a.308.308,0,0,0-.006-.061c-.146-2.061-2.606-2.862-4.2-3.837L43.9,3.125C42.653,2.364,40.167.118,38.429.642a1.86,1.86,0,0,0-1.417,1.835c-.147,1,1.345,3.819,1.472,3.5-.39.979-4.005,2.419-4.852,2.931C23.463,15.064,13.269,21.18,3.107,27.348,1.529,28.308.313,28.8.591,30.927c.494,3.266,3.053,7.24,4.527,10.212,5.314,3.129,11.058,5.792,16.513,8.765-2.281,2.318-5.257,4.137-7.153,6.757-1.309,3.656,3.192,2.613,4.921,2.086l10.526-3.213c4.873-2.186,1.053-8.013-.463-11.371-1.84-2.553-5.148-4.008-7.526-6.1,8.883-1.554,17.887-3.746,26.594-5.568.785.913.476,2.953,1.687,3.658,1.747,1.017,2.814-.153,3.475-1.6C56.512,28.272,57.73,20.635,59.531,13.987Zm-29.78,40.39c-4.1,1.185-8.2,2.6-12.268,3.745-.722.009-2.114-.375-1.794-1.5.23-.81,2.376-2.129,3-2.685,1.343-1.2,2.673-2.433,4.007-3.658a.577.577,0,0,0,.214-.2c1.713-1.57,3.438-3.128,5.22-4.6,1.4-1.157.689-.58,1.331.971C30.272,48.419,33.013,52.8,29.751,54.377ZM24.08,40.946A28.688,28.688,0,0,1,28.1,44.111l-5.515,4.941L7.1,40.945c4.476-.909,8.977-1.767,13.482-2.625Zm28.667-7.318c-.518.866.125,2.594-2.177,1.1-.576-.374-.929-2.378-1.187-3.038a.6.6,0,0,0-.611-.265c-14.26,3-28.541,5.759-42.764,8.905a8.752,8.752,0,0,1-1.168-2.6c-1-2.306-4.2-6.835-2.239-8.956,1.62-1.752,4.924-2.974,6.953-4.2l11.1-6.7L39.2,6.669a.43.43,0,0,0,.219-.535c-.744-1.918-1.8-4.677.933-3.978,2.037.52,4.44,2.707,6.226,3.8l7.282,4.44c1.315.8,4.346,1.879,4.478,3.7q-1.823,6.37-3.644,12.742C54.117,28.835,53.821,31.831,52.747,33.628Z"
        fill="#262626" />
</svg>