<svg version="1.1" id="fi_177062" xmlns="http://www.w3.org/2000/svg"
    xmlns:xlink="http://www.w3.org/1999/xlink" x="0px" y="0px" viewBox="0 0 397.731 397.731"
    style="enable-background:new 0 0 397.731 397.731;" xml:space="preserve">
    <g>
        <path d="M396.193,234.914c1.36,3.2,1.84,7.23,1.35,10.68c-1.98,14.2-4.34,28.35-6.87,42.46c-1.16,6.44-2.46,12.64-6.75,18.37
            c-2.33,3.11-1.38,9.1-1.03,13.73c0.64,8.41,1.94,16.78,2.96,25.16c0.14,1.09,0.5,2.2,0.42,3.28c-1.38,20.47,0,19.62-17.53,25.2
            c-20.19,6.42-40.78,10.09-61.84,9.62c-35.3-0.79-70.59-2.29-105.87-3.87c-8.02-0.36-15.96-2.25-24.58-3.54
            c-0.62,2.31-1.03,4.76-1.93,7.02c-1.39,3.5-3.92,4.95-7.86,3.97c-12.78-3.16-25.64-6.01-38.39-9.3c-8.52-2.2-17.04-4.62-25.29-7.66
            c-2.71-1-5.94-3.95-6.58-6.58c-1.43-5.84-5.14-7.97-10.11-10.21c-15.07-6.8-29.81-14.33-44.79-21.34
            c-5.46-2.55-8.98-6.58-10.23-12.22c-3.01-13.62-5.98-27.26-8.27-41.01c-0.78-4.69-2.28-7.82-5.93-10.97
            c-3.43-2.95-6.98-7.29-7.75-11.52c-4.75-26.01-10.42-51.98-9.14-78.69c1.5-31.48,17.28-54.73,44.07-69.44
            c25.86-14.19,54.07-20.87,84.02-16.68c1.01,0.14,2.1-0.26,2.88-0.36c0.53-0.46,1.02-0.67,1.06-0.95
            c6.51-41.26,34.01-62.73,71.12-74.65c15.15-4.86,30.64-6.56,46.75-3.3c28.48,5.77,46.65,23.45,59.16,48.39
            c0.16,0.33,0.38,0.67,0.4,1.02c0.82,13.75,11.23,21.54,19.04,31.03c4.87,5.92,8.82,12.58,13.48,18.68
            c4.02,5.25,8.44,10.19,12.72,15.24c6.93,8.2,6.7,10.23-1.95,16.58c-1.43,1.05-2.85,2.1-3.76,2.76
            c10.25,17.61,20.66,34.51,30.05,51.96C385.654,209.744,390.873,222.384,396.193,234.914z M376.443,295.094
            c2.57-15,5.44-31.73,8.47-49.46c-20.26,4.65-38.85,9.03-57.49,13.15c-16.17,3.58-32.26,8.68-48.62,9.89
            c-27.86,2.06-55.91,1.94-83.87,2c-10.8,0.03-21.59-1.94-33.43-3.11c2.5,11.62,4.79,22.71,7.31,33.74
            c1.13,4.94,4.22,7.39,10.38,6.07c0-7.76,0-15.39,0-23.01c0.75-0.06,1.49-0.11,2.24-0.17c0.78,8.51,1.56,17.01,2.39,26.11
            c3.41-0.2,6.13-0.36,9.38-0.55c0.79-8.21,1.51-15.78,2.24-23.36c0.83,0.04,1.66,0.08,2.49,0.11c0.41,7.86,0.82,15.72,1.26,24.12
            c3.18,0,5.86,0,8.69,0c0.95-8.44,1.83-16.34,2.94-26.17c5.4,9.91,0.33,19.03,2.82,27.6c3.16,0,5.84,0,8.6,0
            c1.32-7.09,2.53-13.56,3.74-20.02c0.72,0.11,1.45,0.22,2.18,0.33c0,6.83,0,13.66,0,21.19c10.74-2.76,4.01-12.21,8.95-18.1
            c0,6.33,0,11.52,0,16.84c10.76,0,20.52,0,30.66,0c1.15-6.43,2.18-12.13,3.2-17.83c0.48,0.04,0.96,0.08,1.44,0.12
            c0,5.67,0,11.35,0,17.33c4.59-0.55,8.17-0.97,11.71-1.4c1.48-4.71,2.79-8.89,4.11-13.07c0.35,0.09,0.7,0.19,1.05,0.29
            c-0.28,3.85-0.56,7.69-0.97,13.31c16.91-2.74,32.78-5.11,48.58-7.94C349.493,300.854,361.993,298.044,376.443,295.094z
             M371.303,360.114c5.49-18.46-1.05-34.34-2.65-51.32c-65.03,15.73-129.9,21.38-195.51,7.99c0.98,16.55,1.93,32.66,2.93,49.56
            c3.2,0.57,6.69,1.19,10.78,1.92c1.04-6.23,1.89-11.62,2.86-16.99c0.95-5.27,0.16-11.07,4.84-15.34
            c-0.97,10.43-1.94,20.85-2.98,32.07c4.68,0,7.74,0,11.26,0c1.23-10.67,1.14-21.11,7.76-29.95c-0.94,10.02-1.88,20.05-2.86,30.45
            c4.59,0,7.81,0,11.21,0c3.9-9.16,1.25-19.9,8.89-30.29c-0.94,12.13-1.68,21.8-2.4,31.08c7.51,2.11,10.35-0.07,11.34-6.27
            c1.08-6.75,3.19-13.33,4.85-19.98c0.75,0.13,1.5,0.25,2.25,0.37c-0.82,8.54-1.63,17.09-2.47,25.9c6.02,1.89,7.92-0.03,9.02-4.62
            c1.78-7.45,4.4-14.7,6.67-22.03c0.81,0.22,1.62,0.44,2.44,0.66c-1.47,8.53-2.94,17.05-4.53,26.27c3.48,0,6.19,0,9.04,0
            c3.47-9.77,3.42-20.18,10.17-28.41c-1.32,9.32-2.63,18.63-4.04,28.66c3.21,0.27,5.57,0.46,7.99,0.67c1.24-5,2.12-9.3,3.41-13.48
            c1.24-4.08,2.9-8.03,4.38-12.04c0.78,0.26,1.56,0.52,2.33,0.79c-1.73,8.04-3.47,16.09-5.2,24.11c5.82,2.01,8.13,0.6,9.27-4.75
            c1.69-7.86,4.4-15.5,6.67-23.23c0.72,0.19,1.45,0.38,2.17,0.57c-1.6,9.2-3.2,18.41-4.79,27.52c5.23,1.8,6.78-0.13,7.78-4.08
            c1.76-7.01,4.08-13.87,6.17-20.8c0.73,0.2,1.47,0.4,2.21,0.6c-1.44,7.81-2.89,15.62-4.45,24.07c3.72,0,6.88,0,10.57,0
            c1.5-6,2.96-11.89,4.42-17.77c0.52,0.09,1.05,0.19,1.57,0.29c-0.34,5.86-0.68,11.71-1.11,19.19
            C340.763,367.394,356.353,363.674,371.303,360.114z M380.964,234.744c-10.95-29.48-26.06-56.84-41.97-84.27
            c-17.02,16.67-37.74,24.97-70.43,28.7c-2.34,22.09-21.54,24.05-35.19,29.61c-5.79,10.03-9.69,19.38-15.84,26.89
            c-10.78,13.16-24.14,22.55-42.62,21.27c-2.75-0.2-5.65,1.76-8.48,2.72C201.733,274.084,342.373,256.314,380.964,234.744z
             M340.893,138.774c2.17-1.3,4.85-2.91,8.66-5.19c-15.19-14.14-20.5-34.69-37.51-47.09c-3.1,2.23-5.95,4.28-8.89,6.38
            c6.93,7.47,13.71,14.13,19.7,21.43C329.093,121.914,334.583,130.144,340.893,138.774z M321.283,151.764
            c7.19-5.2,8.44-8.95,4.18-15.77c-12.06-19.31-26.72-35.98-48.27-45.29c-13.1-5.67-20.63-3.86-28.17,8.1
            c-3.29,5.22-5.76,11.09-7.73,16.96c-2.56,7.6-4.26,15.48-6.46,23.75c4.47,1.17,8.57,2.24,12.53,3.27
            c5.04-7.95,9.66-15.26,14.28-22.56c0.8,0.38,1.6,0.75,2.4,1.12c-2.57,6.7-4.85,13.54-7.82,20.06c-2.22,4.87-1.23,7.55,3.54,8.79
            c5.74-4.23,9.48-11.83,20.34-8.59c-5.89,5.97-10.88,11.05-15.91,16.14c1.27,3.63,2.58,7.39,4.11,11.76
            c5.95-1.09,10.68-1.76,15.32-2.85C296.904,163.554,310.013,159.904,321.283,151.764z M295.893,88.694
            c6.6-5.46,6.56-5.46,5.87-10.16c-3.9-26.61-27.1-53.97-57.99-57.15c-10.41-1.07-21.51-0.33-31.69,2.09
            c-36.79,8.73-63.48,28.67-70.92,68.28c-0.38,2-1.91,3.79-2.85,5.6c-6.31,0.52-12.16,1.34-18.01,1.41
            c-22.45,0.26-43.95,5.18-64.02,14.84c-24.33,11.72-39.99,30.67-44.16,58.19c-0.83,5.47-0.08,9.95,2.77,14.65
            c9.6,15.82,22.07,28.47,38.74,36.8c6.25,3.13,12.61,6.13,18.58,9.74c5.11,3.09,9.5,2.83,14.23-0.54
            c9.27-6.6,18.68-13.02,28.51-19.84c-1.09-3.2-1.69-4.92-2.27-6.66c-3.43-10.39-1.65-15.68,8.02-20.97
            c5.13-2.8,10.65-5.32,16.3-6.65c13.86-3.27,27.89-5.78,42.47-8.72c9.18-19.78,27.18-27.09,48.95-28.48
            c-3.77-19.09,2.02-35.09,11.97-49.74c9.2-13.54,21.3-17.1,36.53-11.33C283.404,82.514,289.573,85.784,295.893,88.694z
             M257.193,181.674c3.19-18.67-4.34-29.84-22.69-33.8c-3.23-0.7-6.57-0.84-8.34-1.06c-12.29-0.12-24.78,5.68-33.73,14.94
            c-8.79,9.09-8.62,17.89,0.07,27.07c12.62,13.33,43.86,15.93,61.76-0.33C255.943,186.974,256.783,184.074,257.193,181.674z
             M187.833,244.634c15.47-6.94,26.05-18.3,31.08-35.65c-6.53-1.58-12.43-3.01-18.19-4.41c-5.69,4.41-9.35,11.89-18.28,10.15
            c0.39-7.42,5.79-10.24,11.07-13.85c-2.62-2.47-4.93-4.66-6.9-6.51c-7.06,1.05-12.57,6.39-20.28,4.65c1.09-1.79,1.31-2.59,1.84-2.95
            c4.26-2.83,8.58-5.57,13.33-8.64c-0.83-2.64-1.67-5.35-3.12-9.98c-14.93,3.48-29.17,5.64-42.6,10.21
            c-21.07,7.18-17.37,10.47-10.34,25.06c0.79,1.65,1.65,3.28,2.56,4.88c11.02,19.55,28.85,27.34,50.21,28.71
            C181.393,246.514,184.943,245.934,187.833,244.634z M163.583,374.694c2.72-16.8,4.22-32.5,1.27-48.25
            c-3.19-16.98-6.51-33.96-10.45-50.77c-1.9-8.13-2.13-15.23,4.76-20.66c-8.33-4.67-17.09-8.18-24.03-13.9
            c-6.86-5.66-11.88-13.55-17.73-20.48c-11.17,7.6-22.33,15.21-33.5,22.82c0,1.7-0.22,3.2,0.04,4.61
            c6.09,33.31,12.57,66.54,18.17,99.93c1.91,11.41,7.77,16.65,19.23,17.48c1.03-12.25,2.05-24.55,3.08-36.85
            c2.05,4.1,2.13,8.1,2.03,12.1c-0.17,6.64-0.62,13.27-0.65,19.9c-0.04,7.68,0.1,7.68,9.07,6.83c2.05-13.05,0.89-26.66,5.93-39.34
            c0.51,7.79,0.06,15.48-0.34,23.16c-0.26,5.15-0.7,10.3-0.61,15.44c0.08,4.01,2.61,4.74,6.6,3.23c1.16-10,2.32-20.1,3.49-30.2
            c0.88-0.02,1.76-0.03,2.64-0.04c-0.63,10.9-1.26,21.8-1.91,32.91C155.473,373.384,159.263,373.994,163.583,374.694z
             M90.743,340.604c-2.23-15.29-4.23-29-6.07-41.63c-17.8-6.28-34.3-12.11-52.13-18.4c3.48,13.27,5.12,26.36,11.7,38.02
            c0.84,1.49,3.19,2.14,5.99,3.9c0-5.01,0-8.57,0-12.13c2.14,3.39,2.94,6.91,3.16,10.45c0.3,5.08,3.13,6.48,7.85,6.85
            c-0.61-8.32-1.15-15.79-1.7-23.27c7,8.32,2.75,19.91,9.17,28.13c0.86-0.08,1.72-0.16,2.58-0.24c0-6.78,0-13.55,0-20.33
            c0.72-0.1,1.44-0.19,2.16-0.29c1.47,8.07,2.93,16.13,4.49,24.7C81.933,337.694,85.803,338.974,90.743,340.604z M82.603,283.404
            c-2.26-11.25-4.87-22.29-6.53-33.47c-0.82-5.46-3.37-8.54-8-10.78c-21.68-10.5-41.17-23.85-56.93-44.7
            c1.6,16.21,3.53,30.83,8.17,45.02c0.54-4.23,1.08-8.46,1.61-12.69c1.54,8.62,1.56,17.04,1.53,25.46c-0.02,4.23,0.72,7.79,6.26,8.23
            c2.03-8.29-0.89-16.94,4.03-24.32c0.82,7.76,0.71,15.46,0.85,23.16c0.15,8.45,0.25,8.44,11.32,11.86c0-8.66,0-16.9,0-25.14
            c0.93-0.02,1.86-0.04,2.8-0.06c0.36,3.88,0.86,7.74,1.05,11.63c0.24,4.78-0.11,9.61,0.49,14.34c0.19,1.54,2.54,2.81,5.28,5.62
            c0.54-10.52,0.95-18.49,1.35-26.46c5.71,8.71,1.67,18.59,4.4,28.09c3.47,1.12,7.07,2.29,11.4,3.69c-0.77-9.1-1.42-16.74-2.07-24.37
            c0.77-0.09,1.54-0.18,2.32-0.27c3.6,6.8,3.34,14.4,3.29,21.92C75.193,285.504,77.953,285.034,82.603,283.404z"></path>
        <path style="fill:#FF96BD;" d="M384.913,245.634c-3.03,17.73-5.9,34.46-8.47,49.46c-14.45,2.95-26.95,5.76-39.55,8.01
            c-15.8,2.83-31.67,5.2-48.58,7.94c0.41-5.62,0.69-9.46,0.97-13.31c-0.35-0.1-0.7-0.2-1.05-0.29c-1.32,4.18-2.63,8.36-4.11,13.07
            c-3.54,0.43-7.12,0.85-11.71,1.4c0-5.98,0-11.66,0-17.33c-0.48-0.04-0.96-0.08-1.44-0.12c-1.02,5.7-2.05,11.4-3.2,17.83
            c-10.14,0-19.9,0-30.66,0c0-5.32,0-10.51,0-16.84c-4.94,5.89,1.79,15.34-8.95,18.1c0-7.53,0-14.36,0-21.19
            c-0.73-0.11-1.46-0.22-2.18-0.33c-1.21,6.46-2.42,12.93-3.74,20.02c-2.76,0-5.44,0-8.6,0c-2.49-8.57,2.58-17.69-2.82-27.6
            c-1.11,9.83-1.99,17.73-2.94,26.17c-2.83,0-5.51,0-8.69,0c-0.44-8.4-0.85-16.26-1.26-24.12c-0.83-0.03-1.66-0.07-2.49-0.11
            c-0.73,7.58-1.45,15.15-2.24,23.36c-3.25,0.19-5.97,0.35-9.38,0.55c-0.83-9.1-1.61-17.6-2.39-26.11c-0.75,0.06-1.49,0.11-2.24,0.17
            c0,7.62,0,15.25,0,23.01c-6.16,1.32-9.25-1.13-10.38-6.07c-2.52-11.03-4.81-22.12-7.31-33.74c11.84,1.17,22.63,3.14,33.43,3.11
            c27.96-0.06,56.01,0.06,83.87-2c16.36-1.21,32.45-6.31,48.62-9.89C346.063,254.664,364.654,250.284,384.913,245.634z"></path>
        <path style="fill:#FF96BD;" d="M368.654,308.794c1.6,16.98,8.14,32.86,2.65,51.32c-14.95,3.56-30.54,7.28-47.74,11.39
            c0.43-7.48,0.77-13.33,1.11-19.19c-0.52-0.1-1.05-0.2-1.57-0.29c-1.46,5.88-2.92,11.77-4.42,17.77c-3.69,0-6.85,0-10.57,0
            c1.56-8.45,3.01-16.26,4.45-24.07c-0.74-0.2-1.48-0.4-2.21-0.6c-2.09,6.93-4.41,13.79-6.17,20.8c-1,3.95-2.55,5.88-7.78,4.08
            c1.59-9.11,3.19-18.32,4.79-27.52c-0.72-0.19-1.45-0.38-2.17-0.57c-2.27,7.73-4.98,15.37-6.67,23.23
            c-1.14,5.35-3.45,6.76-9.27,4.75c1.73-8.02,3.47-16.07,5.2-24.11c-0.77-0.27-1.55-0.53-2.33-0.79c-1.48,4.01-3.14,7.96-4.38,12.04
            c-1.29,4.18-2.17,8.48-3.41,13.48c-2.42-0.21-4.78-0.4-7.99-0.67c1.41-10.03,2.72-19.34,4.04-28.66
            c-6.75,8.23-6.7,18.64-10.17,28.41c-2.85,0-5.56,0-9.04,0c1.59-9.22,3.06-17.74,4.53-26.27c-0.82-0.22-1.63-0.44-2.44-0.66
            c-2.27,7.33-4.89,14.58-6.67,22.03c-1.1,4.59-3,6.51-9.02,4.62c0.84-8.81,1.65-17.36,2.47-25.9c-0.75-0.12-1.5-0.24-2.25-0.37
            c-1.66,6.65-3.77,13.23-4.85,19.98c-0.99,6.2-3.83,8.38-11.34,6.27c0.72-9.28,1.46-18.95,2.4-31.08
            c-7.64,10.39-4.99,21.13-8.89,30.29c-3.4,0-6.62,0-11.21,0c0.98-10.4,1.92-20.43,2.86-30.45c-6.62,8.84-6.53,19.28-7.76,29.95
            c-3.52,0-6.58,0-11.26,0c1.04-11.22,2.01-21.64,2.98-32.07c-4.68,4.27-3.89,10.07-4.84,15.34c-0.97,5.37-1.82,10.76-2.86,16.99
            c-4.09-0.73-7.58-1.35-10.78-1.92c-1-16.9-1.95-33.01-2.93-49.56C238.753,330.174,303.623,324.524,368.654,308.794z"></path>
        <path style="fill:#FF96BD;" d="M338.993,150.474c15.91,27.43,31.02,54.79,41.97,84.27c-38.59,21.57-179.23,39.34-214.53,24.92
            c2.83-0.96,5.73-2.92,8.48-2.72c18.48,1.28,31.84-8.11,42.62-21.27c6.15-7.51,10.05-16.86,15.84-26.89
            c13.65-5.56,32.85-7.52,35.19-29.61C301.253,175.444,321.973,167.144,338.993,150.474z"></path>
        <path style="fill:#C1272D;" d="M349.553,133.584c-3.81,2.28-6.49,3.89-8.66,5.19c-6.31-8.63-11.8-16.86-18.04-24.47
            c-5.99-7.3-12.77-13.96-19.7-21.43c2.94-2.1,5.79-4.15,8.89-6.38C329.053,98.894,334.363,119.444,349.553,133.584z"></path>
        <path style="fill:#C1272D;" d="M325.464,135.994c4.26,6.82,3.01,10.57-4.18,15.77c-11.27,8.14-24.38,11.79-37.66,14.89
            c-4.64,1.09-9.37,1.76-15.32,2.85c-1.53-4.37-2.84-8.13-4.11-11.76c5.03-5.09,10.02-10.17,15.91-16.14
            c-10.86-3.24-14.6,4.36-20.34,8.59c-4.77-1.24-5.76-3.92-3.54-8.79c2.97-6.52,5.25-13.36,7.82-20.06c-0.8-0.37-1.6-0.74-2.4-1.12
            c-4.62,7.3-9.24,14.61-14.28,22.56c-3.96-1.03-8.06-2.1-12.53-3.27c2.2-8.27,3.9-16.15,6.46-23.75c1.97-5.87,4.44-11.74,7.73-16.96
            c7.54-11.96,15.07-13.77,28.17-8.1C298.743,100.014,313.404,116.684,325.464,135.994z"></path>
        <path style="fill:#FF96BD;" d="M301.763,78.534c0.69,4.7,0.73,4.7-5.87,10.16c-6.32-2.91-12.49-6.18-18.97-8.64
            c-15.23-5.77-27.33-2.21-36.53,11.33c-9.95,14.65-15.74,30.65-11.97,49.74c-21.77,1.39-39.77,8.7-48.95,28.48
            c-14.58,2.94-28.61,5.45-42.47,8.72c-5.65,1.33-11.17,3.85-16.3,6.65c-9.67,5.29-11.45,10.58-8.02,20.97
            c0.58,1.74,1.18,3.46,2.27,6.66c-9.83,6.82-19.24,13.24-28.51,19.84c-4.73,3.37-9.12,3.63-14.23,0.54
            c-5.97-3.61-12.33-6.61-18.58-9.74c-16.67-8.33-29.14-20.98-38.74-36.8c-2.85-4.7-3.6-9.18-2.77-14.65
            c4.17-27.52,19.83-46.47,44.16-58.19c20.07-9.66,41.57-14.58,64.02-14.84c5.85-0.07,11.7-0.89,18.01-1.41
            c0.94-1.81,2.47-3.6,2.85-5.6c7.44-39.61,34.13-59.55,70.92-68.28c10.18-2.42,21.28-3.16,31.69-2.09
            C274.663,24.564,297.863,51.924,301.763,78.534z"></path>
        <path style="fill:#C1272D;" d="M234.503,147.874c18.35,3.96,25.88,15.13,22.69,33.8c-0.41,2.4-1.25,5.3-2.93,6.82
            c-17.9,16.26-49.14,13.66-61.76,0.33c-8.69-9.18-8.86-17.98-0.07-27.07c8.95-9.26,21.44-15.06,33.73-14.94
            C227.933,147.034,231.273,147.174,234.503,147.874z"></path>
        <path style="fill:#C1272D;" d="M218.913,208.984c-5.03,17.35-15.61,28.71-31.08,35.65c-2.89,1.3-6.44,1.88-9.62,1.67
            c-21.36-1.37-39.19-9.16-50.21-28.71c-0.91-1.6-1.77-3.23-2.56-4.88c-7.03-14.59-10.73-17.88,10.34-25.06
            c13.43-4.57,27.67-6.73,42.6-10.21c1.45,4.63,2.29,7.34,3.12,9.98c-4.75,3.07-9.07,5.81-13.33,8.64c-0.53,0.36-0.75,1.16-1.84,2.95
            c7.71,1.74,13.22-3.6,20.28-4.65c1.97,1.85,4.28,4.04,6.9,6.51c-5.28,3.61-10.68,6.43-11.07,13.85
            c8.93,1.74,12.59-5.74,18.28-10.15C206.483,205.974,212.383,207.404,218.913,208.984z"></path>
        <path style="fill:#C1272D;" d="M164.853,326.444c2.95,15.75,1.45,31.45-1.27,48.25c-4.32-0.7-8.11-1.31-12.91-2.08
            c0.65-11.11,1.28-22.01,1.91-32.91c-0.88,0.01-1.76,0.02-2.64,0.04c-1.17,10.1-2.33,20.2-3.49,30.2c-3.99,1.51-6.52,0.78-6.6-3.23
            c-0.09-5.14,0.35-10.29,0.61-15.44c0.4-7.68,0.85-15.37,0.34-23.16c-5.04,12.68-3.88,26.29-5.93,39.34
            c-8.97,0.85-9.11,0.85-9.07-6.83c0.03-6.63,0.48-13.26,0.65-19.9c0.1-4,0.02-8-2.03-12.1c-1.03,12.3-2.05,24.6-3.08,36.85
            c-11.46-0.83-17.32-6.07-19.23-17.48c-5.6-33.39-12.08-66.62-18.17-99.93c-0.26-1.41-0.04-2.91-0.04-4.61
            c11.17-7.61,22.33-15.22,33.5-22.82c5.85,6.93,10.87,14.82,17.73,20.48c6.94,5.72,15.7,9.23,24.03,13.9
            c-6.89,5.43-6.66,12.53-4.76,20.66C158.343,292.484,161.663,309.464,164.853,326.444z M92.223,244.824
            c30.23,17.86,33.09,18.9,44.58,15.9c-14.97-6.27-29.42-12.32-43.87-18.37C92.693,243.174,92.463,244.004,92.223,244.824z"></path>
        <path d="M136.803,260.724c-11.49,3-14.35,1.96-44.58-15.9c0.24-0.82,0.47-1.65,0.71-2.47
            C107.383,248.404,121.833,254.454,136.803,260.724z"></path>
        <path style="fill:#FF96BD;" d="M84.673,298.974c1.84,12.63,3.84,26.34,6.07,41.63c-4.94-1.63-8.81-2.91-12.8-4.24
            c-1.56-8.57-3.02-16.63-4.49-24.7c-0.72,0.1-1.44,0.19-2.16,0.29c0,6.78,0,13.55,0,20.33c-0.86,0.08-1.72,0.16-2.58,0.24
            c-6.42-8.22-2.17-19.81-9.17-28.13c0.55,7.48,1.09,14.95,1.7,23.27c-4.72-0.37-7.55-1.77-7.85-6.85
            c-0.22-3.54-1.02-7.06-3.16-10.45c0,3.56,0,7.12,0,12.13c-2.8-1.76-5.15-2.41-5.99-3.9c-6.58-11.66-8.22-24.75-11.7-38.02
            C50.373,286.864,66.873,292.694,84.673,298.974z"></path>
        <path style="fill:#FF96BD;" d="M76.073,249.934c1.66,11.18,4.27,22.22,6.53,33.47c-4.65,1.63-7.41,2.1-7.38-3.24
            c0.05-7.52,0.31-15.12-3.29-21.92c-0.78,0.09-1.55,0.18-2.32,0.27c0.65,7.63,1.3,15.27,2.07,24.37c-4.33-1.4-7.93-2.57-11.4-3.69
            c-2.73-9.5,1.31-19.38-4.4-28.09c-0.4,7.97-0.81,15.94-1.35,26.46c-2.74-2.81-5.09-4.08-5.28-5.62c-0.6-4.73-0.25-9.56-0.49-14.34
            c-0.19-3.89-0.69-7.75-1.05-11.63c-0.94,0.02-1.87,0.04-2.8,0.06c0,8.24,0,16.48,0,25.14c-11.07-3.42-11.17-3.41-11.32-11.86
            c-0.14-7.7-0.03-15.4-0.85-23.16c-4.92,7.38-2,16.03-4.03,24.32c-5.54-0.44-6.28-4-6.26-8.23c0.03-8.42,0.01-16.84-1.53-25.46
            c-0.53,4.23-1.07,8.46-1.61,12.69c-4.64-14.19-6.57-28.81-8.17-45.02c15.76,20.85,35.25,34.2,56.93,44.7
            C72.703,241.394,75.253,244.474,76.073,249.934z"></path>
    </g>
    <g>
    </g>
    <g>
    </g>
    <g>
    </g>
    <g>
    </g>
    <g>
    </g>
    <g>
    </g>
    <g>
    </g>
    <g>
    </g>
    <g>
    </g>
    <g>
    </g>
    <g>
    </g>
    <g>
    </g>
    <g>
    </g>
    <g>
    </g>
    <g>
    </g>
    </svg>